<svg width="1440" height="412" viewBox="0 0 1440 412" fill="none" xmlns="http://www.w3.org/2000/svg">
<path id="Blob vector" fill-rule="evenodd" clip-rule="evenodd" d="M-614 239.277L-572.39 247.64C-530.78 256.004 -445.248 272.731 -362.028 281.094C-278.808 289.458 -193.277 289.458 -110.057 256.004C-24.525 222.55 58.695 155.642 141.915 164.006C227.447 172.369 310.667 256.004 393.887 247.64C479.418 239.277 562.638 138.915 645.858 72.0078C731.39 5.10009 814.61 -28.3537 900.142 30.1905C983.362 88.7347 1066.58 239.277 1152.11 264.367C1235.33 289.458 1318.55 189.096 1404.09 122.189C1487.31 55.2808 1570.53 21.827 1656.06 38.5539C1739.28 55.2808 1824.81 122.189 1908.03 172.369C1991.25 222.55 2076.78 256.004 2118.39 272.731L2160 289.458V440H2118.39C2076.78 440 1991.25 440 1908.03 440C1824.81 440 1739.28 440 1656.06 440C1570.53 440 1487.31 440 1404.09 440C1318.55 440 1235.33 440 1152.11 440C1066.58 440 983.362 440 900.142 440C814.61 440 731.39 440 645.858 440C562.638 440 479.418 440 393.887 440C310.667 440 227.447 440 141.915 440C58.695 440 -24.525 440 -110.057 440C-193.277 440 -278.808 440 -362.028 440C-445.248 440 -530.78 440 -572.39 440H-614V239.277Z" fill="url(#paint0_linear)"/>
<defs>
<linearGradient id="paint0_linear" x1="773" y1="0" x2="773" y2="440" gradientUnits="userSpaceOnUse">
<stop stop-color="#5BAEE5"/>
<stop offset="1" stop-color="#96E1D9" stop-opacity="0"/>
</linearGradient>
</defs>
</svg>
