<svg width="408" height="408" viewBox="0 0 408 408" fill="none" xmlns="http://www.w3.org/2000/svg">
<g filter="url(#filter0_d)">
<rect x="4" width="400" height="400" rx="75" fill="url(#paint0_linear)"/>
<mask id="mask0" mask-type="alpha" maskUnits="userSpaceOnUse" x="81" y="0" width="246" height="400">
<rect x="81.9999" width="244.8" height="400" fill="#C4C4C4"/>
</mask>
<g mask="url(#mask0)">
<path d="M274.9 86.8C274.9 125.042 243.189 156.1 204 156.1C164.811 156.1 133.1 125.042 133.1 86.8C133.1 48.5581 164.811 17.5 204 17.5C243.189 17.5 274.9 48.5581 274.9 86.8Z" fill="#242424" stroke="#E8E8E8" stroke-width="3"/>
<rect x="92.2999" y="174.3" width="224.2" height="447.4" rx="112.1" fill="#242424" stroke="#E8E8E8" stroke-width="3"/>
<mask id="path-5-inside-1" fill="white">
<path fill-rule="evenodd" clip-rule="evenodd" d="M217.2 243.02C218.392 242.307 219.537 241.485 220.623 240.554L260.651 206.225C265.046 202.456 267.665 197.823 268.758 192.999C250.402 180.263 228.111 172.8 204.078 172.8C180.347 172.8 158.317 180.076 140.094 192.519C141.119 197.515 143.764 202.331 148.305 206.225L188.333 240.554C189.371 241.444 190.464 242.235 191.6 242.926V623.2H217.2V243.02Z"/>
</mask>
<path fill-rule="evenodd" clip-rule="evenodd" d="M217.2 243.02C218.392 242.307 219.537 241.485 220.623 240.554L260.651 206.225C265.046 202.456 267.665 197.823 268.758 192.999C250.402 180.263 228.111 172.8 204.078 172.8C180.347 172.8 158.317 180.076 140.094 192.519C141.119 197.515 143.764 202.331 148.305 206.225L188.333 240.554C189.371 241.444 190.464 242.235 191.6 242.926V623.2H217.2V243.02Z" fill="#C2C2C2"/>
<path d="M220.623 240.554L222.576 242.831L222.576 242.831L220.623 240.554ZM217.2 243.02L215.659 240.446L214.2 241.319V243.02H217.2ZM260.651 206.225L262.604 208.503V208.503L260.651 206.225ZM268.758 192.999L271.683 193.661L272.13 191.688L270.468 190.534L268.758 192.999ZM140.094 192.519L138.403 190.042L136.755 191.167L137.156 193.122L140.094 192.519ZM148.305 206.225L150.258 203.948L148.305 206.225ZM188.333 240.554L190.286 238.277H190.286L188.333 240.554ZM191.6 242.926H194.6V241.24L193.159 240.363L191.6 242.926ZM191.6 623.2H188.6V626.2H191.6V623.2ZM217.2 623.2V626.2H220.2V623.2H217.2ZM218.67 238.277C217.714 239.096 216.706 239.819 215.659 240.446L218.741 245.594C220.077 244.794 221.361 243.873 222.576 242.831L218.67 238.277ZM258.698 203.948L218.67 238.277L222.576 242.831L262.604 208.503L258.698 203.948ZM265.832 192.336C264.88 196.537 262.599 200.602 258.698 203.948L262.604 208.503C267.493 204.309 270.45 199.108 271.683 193.661L265.832 192.336ZM204.078 175.8C227.481 175.8 249.177 183.065 267.047 195.464L270.468 190.534C251.626 177.461 228.742 169.8 204.078 169.8V175.8ZM141.786 194.997C159.526 182.883 180.97 175.8 204.078 175.8V169.8C179.725 169.8 157.107 177.269 138.403 190.042L141.786 194.997ZM150.258 203.948C146.229 200.493 143.926 196.268 143.033 191.917L137.156 193.122C138.312 198.762 141.3 204.17 146.352 208.503L150.258 203.948ZM190.286 238.277L150.258 203.948L146.352 208.503L186.38 242.831L190.286 238.277ZM193.159 240.363C192.161 239.756 191.2 239.061 190.286 238.277L186.38 242.831C187.542 243.828 188.767 244.714 190.041 245.489L193.159 240.363ZM194.6 623.2V242.926H188.6V623.2H194.6ZM217.2 620.2H191.6V626.2H217.2V620.2ZM214.2 243.02V623.2H220.2V243.02H214.2Z" fill="#E8E8E8" mask="url(#path-5-inside-1)"/>
<mask id="path-7-inside-2" fill="white">
<path fill-rule="evenodd" clip-rule="evenodd" d="M216.044 213.044C209.114 219.119 198.886 219.119 191.956 213.044L162.094 186.866C158.594 183.798 156.603 179.979 155.896 176.033C169.475 166.784 185.88 161.378 203.548 161.378C221.563 161.378 238.265 166.999 251.996 176.583C251.208 180.333 249.244 183.941 245.906 186.866L216.044 213.044Z"/>
</mask>
<path fill-rule="evenodd" clip-rule="evenodd" d="M216.044 213.044C209.114 219.119 198.886 219.119 191.956 213.044L162.094 186.866C158.594 183.798 156.603 179.979 155.896 176.033C169.475 166.784 185.88 161.378 203.548 161.378C221.563 161.378 238.265 166.999 251.996 176.583C251.208 180.333 249.244 183.941 245.906 186.866L216.044 213.044Z" fill="#242424"/>
<path d="M191.956 213.044L193.933 210.788L191.956 213.044ZM216.044 213.044L218.022 215.3L216.044 213.044ZM162.094 186.866L164.072 184.61L162.094 186.866ZM155.896 176.033L154.208 173.554L152.601 174.648L152.943 176.562L155.896 176.033ZM251.996 176.583L254.932 177.2L255.34 175.259L253.714 174.123L251.996 176.583ZM245.906 186.866L243.928 184.61H243.928L245.906 186.866ZM189.978 215.3C198.04 222.367 209.96 222.367 218.022 215.3L214.067 210.788C208.269 215.871 199.731 215.871 193.933 210.788L189.978 215.3ZM160.116 189.122L189.978 215.3L193.933 210.788L164.072 184.61L160.116 189.122ZM152.943 176.562C153.767 181.158 156.09 185.593 160.116 189.122L164.072 184.61C161.097 182.003 159.44 178.799 158.85 175.504L152.943 176.562ZM157.585 178.513C170.681 169.592 186.501 164.378 203.548 164.378V158.378C185.258 158.378 168.268 163.977 154.208 173.554L157.585 178.513ZM203.548 164.378C220.929 164.378 237.035 169.799 250.279 179.043L253.714 174.123C239.495 164.199 222.197 158.378 203.548 158.378V164.378ZM247.884 189.122C251.721 185.758 254.014 181.57 254.932 177.2L249.061 175.966C248.403 179.095 246.766 182.123 243.928 184.61L247.884 189.122ZM218.022 215.3L247.884 189.122L243.928 184.61L214.067 210.788L218.022 215.3Z" fill="white" mask="url(#path-7-inside-2)"/>
<mask id="path-9-inside-3" fill="white">
<path fill-rule="evenodd" clip-rule="evenodd" d="M310.947 246.906C315.508 259.207 318 272.512 318 286.4V509.6C318 522.631 315.806 535.149 311.767 546.806C287.759 543.745 269.2 523.24 269.2 498.4V295.2C269.2 270.644 287.337 250.324 310.947 246.906Z"/>
</mask>
<path fill-rule="evenodd" clip-rule="evenodd" d="M310.947 246.906C315.508 259.207 318 272.512 318 286.4V509.6C318 522.631 315.806 535.149 311.767 546.806C287.759 543.745 269.2 523.24 269.2 498.4V295.2C269.2 270.644 287.337 250.324 310.947 246.906Z" fill="#C2C2C2"/>
<path d="M310.947 246.906L313.759 245.863C313.268 244.537 311.917 243.734 310.517 243.937L310.947 246.906ZM311.767 546.806L311.388 549.782C312.796 549.961 314.137 549.129 314.602 547.788L311.767 546.806ZM308.134 247.949C312.573 259.921 315 272.874 315 286.4H321C321 272.151 318.443 258.493 313.759 245.863L308.134 247.949ZM315 286.4V509.6H321V286.4H315ZM315 509.6C315 522.292 312.863 534.479 308.933 545.824L314.602 547.788C318.749 535.82 321 522.97 321 509.6H315ZM312.147 543.83C289.617 540.958 272.2 521.711 272.2 498.4H266.2C266.2 524.769 285.901 546.533 311.388 549.782L312.147 543.83ZM272.2 498.4V295.2H266.2V498.4H272.2ZM272.2 295.2C272.2 272.156 289.221 253.082 311.376 249.875L310.517 243.937C285.453 247.565 266.2 269.132 266.2 295.2H272.2Z" fill="#DDDDDD" mask="url(#path-9-inside-3)"/>
<mask id="path-11-inside-4" fill="white">
<path fill-rule="evenodd" clip-rule="evenodd" d="M97.8532 246.906C93.292 259.207 90.7999 272.512 90.7999 286.4V509.6C90.7999 522.631 92.9939 535.149 97.0327 546.806C121.041 543.745 139.6 523.24 139.6 498.4V295.2C139.6 270.644 121.462 250.324 97.8532 246.906Z"/>
</mask>
<path fill-rule="evenodd" clip-rule="evenodd" d="M97.8532 246.906C93.292 259.207 90.7999 272.512 90.7999 286.4V509.6C90.7999 522.631 92.9939 535.149 97.0327 546.806C121.041 543.745 139.6 523.24 139.6 498.4V295.2C139.6 270.644 121.462 250.324 97.8532 246.906Z" fill="#C2C2C2"/>
<path d="M97.8532 246.906L98.2831 243.937C96.8833 243.734 95.5321 244.537 95.0404 245.863L97.8532 246.906ZM97.0327 546.806L94.198 547.788C94.6627 549.129 96.0039 549.961 97.4121 549.782L97.0327 546.806ZM93.7999 286.4C93.7999 272.874 96.2267 259.921 100.666 247.949L95.0404 245.863C90.3572 258.493 87.7999 272.151 87.7999 286.4H93.7999ZM93.7999 509.6V286.4H87.7999V509.6H93.7999ZM99.8674 545.824C95.9366 534.479 93.7999 522.292 93.7999 509.6H87.7999C87.7999 522.97 90.0513 535.82 94.198 547.788L99.8674 545.824ZM136.6 498.4C136.6 521.711 119.183 540.958 96.6533 543.83L97.4121 549.782C122.899 546.533 142.6 524.769 142.6 498.4H136.6ZM136.6 295.2V498.4H142.6V295.2H136.6ZM97.4234 249.875C119.578 253.082 136.6 272.156 136.6 295.2H142.6C142.6 269.132 123.346 247.565 98.2831 243.937L97.4234 249.875Z" fill="#DDDDDD" mask="url(#path-11-inside-4)"/>
</g>
<g style="mix-blend-mode:multiply" filter="url(#filter1_d)">
<rect x="39.9999" y="115.2" width="328" height="265.6" rx="42" fill="#696969"/>
</g>
<path d="M77.5329 185.28V205.965H89.3979V210.2H72.8079V185.28H77.5329ZM108.202 201.485V202.535H94.6916C94.8549 204.075 95.3333 205.242 96.1266 206.035C96.9433 206.805 98.0283 207.19 99.3816 207.19C101.388 207.19 102.765 206.327 103.512 204.6H107.747C107.28 206.443 106.3 207.913 104.807 209.01C103.313 210.083 101.493 210.62 99.3466 210.62C96.6633 210.62 94.4933 209.757 92.8366 208.03C91.1799 206.303 90.3516 204.017 90.3516 201.17C90.3516 198.323 91.1683 196.037 92.8016 194.31C94.4583 192.583 96.6166 191.72 99.2766 191.72C102.007 191.72 104.177 192.618 105.787 194.415C107.397 196.212 108.202 198.568 108.202 201.485ZM99.2416 195.15C96.6516 195.15 95.1466 196.585 94.7266 199.455H103.792C103.605 198.125 103.115 197.075 102.322 196.305C101.528 195.535 100.502 195.15 99.2416 195.15ZM127.118 210.2H122.708C122.498 209.827 122.335 209.092 122.218 207.995C121.005 209.745 119.068 210.62 116.408 210.62C114.425 210.62 112.838 210.142 111.648 209.185C110.482 208.228 109.898 206.898 109.898 205.195C109.898 201.905 112.208 200.027 116.828 199.56L119.558 199.315C120.468 199.198 121.122 198.988 121.518 198.685C121.915 198.358 122.113 197.88 122.113 197.25C122.113 196.48 121.857 195.92 121.343 195.57C120.853 195.197 120.013 195.01 118.823 195.01C117.54 195.01 116.618 195.232 116.058 195.675C115.498 196.095 115.172 196.83 115.078 197.88H110.738C110.995 193.773 113.702 191.72 118.858 191.72C123.875 191.72 126.383 193.528 126.383 197.145V206.77C126.383 208.357 126.628 209.5 127.118 210.2ZM117.458 207.47C118.835 207.47 119.955 207.097 120.818 206.35C121.682 205.58 122.113 204.483 122.113 203.06V201.415C121.693 201.788 121.005 202.033 120.048 202.15L117.668 202.43C116.502 202.57 115.662 202.85 115.148 203.27C114.658 203.667 114.413 204.25 114.413 205.02C114.413 205.79 114.67 206.397 115.183 206.84C115.72 207.26 116.478 207.47 117.458 207.47ZM139.405 191.86C139.802 191.86 140.164 191.883 140.49 191.93V195.99H139.37C137.69 195.99 136.395 196.422 135.485 197.285C134.599 198.125 134.155 199.373 134.155 201.03V210.2H129.745V192.14H134.015V195.36C135.019 193.027 136.815 191.86 139.405 191.86ZM152.775 191.72C154.735 191.72 156.275 192.292 157.395 193.435C158.539 194.555 159.11 196.153 159.11 198.23V210.2H154.7V198.965C154.7 196.678 153.569 195.535 151.305 195.535C150.185 195.535 149.229 195.943 148.435 196.76C147.665 197.553 147.28 198.662 147.28 200.085V210.2H142.87V192.14H147.14V194.73C148.517 192.723 150.395 191.72 152.775 191.72ZM174.623 189.795H170.283V185.665H174.623V189.795ZM174.658 210.2H170.248V192.14H174.658V210.2ZM188.117 191.72C190.077 191.72 191.617 192.292 192.737 193.435C193.881 194.555 194.452 196.153 194.452 198.23V210.2H190.042V198.965C190.042 196.678 188.911 195.535 186.647 195.535C185.527 195.535 184.571 195.943 183.777 196.76C183.007 197.553 182.622 198.662 182.622 200.085V210.2H178.212V192.14H182.482V194.73C183.859 192.723 185.737 191.72 188.117 191.72ZM215.005 192.14V195.5H211.435V205.265C211.435 205.848 211.587 206.257 211.89 206.49C212.217 206.723 212.754 206.84 213.5 206.84H215.005V210.2C214.049 210.293 213.279 210.34 212.695 210.34C210.735 210.34 209.3 209.978 208.39 209.255C207.504 208.508 207.06 207.33 207.06 205.72V195.5H204.26V192.14H207.06V186.89H211.435V192.14H215.005ZM227.492 191.72C229.452 191.72 230.992 192.292 232.112 193.435C233.256 194.555 233.827 196.153 233.827 198.23V210.2H229.417V198.965C229.417 196.678 228.286 195.535 226.022 195.535C224.902 195.535 223.946 195.943 223.152 196.76C222.382 197.553 221.997 198.662 221.997 200.085V210.2H217.587V185.28H221.997V194.555C223.374 192.665 225.206 191.72 227.492 191.72ZM241.786 189.795H237.446V185.665H241.786V189.795ZM241.821 210.2H237.411V192.14H241.821V210.2ZM252.48 210.69C247.207 210.69 244.454 208.613 244.22 204.46H248.525C248.642 205.58 249.004 206.373 249.61 206.84C250.24 207.307 251.22 207.54 252.55 207.54C254.93 207.54 256.12 206.817 256.12 205.37C256.12 204.717 255.864 204.215 255.35 203.865C254.837 203.515 253.915 203.223 252.585 202.99L250.52 202.64C246.577 201.987 244.605 200.167 244.605 197.18C244.605 195.477 245.259 194.147 246.565 193.19C247.872 192.21 249.715 191.72 252.095 191.72C257.252 191.72 259.912 193.762 260.075 197.845H255.91C255.864 196.772 255.525 196.013 254.895 195.57C254.265 195.103 253.332 194.87 252.095 194.87C249.995 194.87 248.945 195.57 248.945 196.97C248.945 197.577 249.179 198.055 249.645 198.405C250.112 198.732 250.882 198.988 251.955 199.175L254.23 199.525C256.424 199.922 258.01 200.552 258.99 201.415C259.994 202.278 260.495 203.48 260.495 205.02C260.495 206.84 259.795 208.24 258.395 209.22C256.995 210.2 255.024 210.69 252.48 210.69ZM288.245 185.28V189.515H275.365V195.395H287.09V199.455H275.365V210.2H270.64V185.28H288.245ZM306.254 210.2H301.844C301.634 209.827 301.471 209.092 301.354 207.995C300.141 209.745 298.204 210.62 295.544 210.62C293.561 210.62 291.974 210.142 290.784 209.185C289.617 208.228 289.034 206.898 289.034 205.195C289.034 201.905 291.344 200.027 295.964 199.56L298.694 199.315C299.604 199.198 300.257 198.988 300.654 198.685C301.051 198.358 301.249 197.88 301.249 197.25C301.249 196.48 300.992 195.92 300.479 195.57C299.989 195.197 299.149 195.01 297.959 195.01C296.676 195.01 295.754 195.232 295.194 195.675C294.634 196.095 294.307 196.83 294.214 197.88H289.874C290.131 193.773 292.837 191.72 297.994 191.72C303.011 191.72 305.519 193.528 305.519 197.145V206.77C305.519 208.357 305.764 209.5 306.254 210.2ZM296.594 207.47C297.971 207.47 299.091 207.097 299.954 206.35C300.817 205.58 301.249 204.483 301.249 203.06V201.415C300.829 201.788 300.141 202.033 299.184 202.15L296.804 202.43C295.637 202.57 294.797 202.85 294.284 203.27C293.794 203.667 293.549 204.25 293.549 205.02C293.549 205.79 293.806 206.397 294.319 206.84C294.856 207.26 295.614 207.47 296.594 207.47ZM316.123 210.69C310.85 210.69 308.096 208.613 307.863 204.46H312.168C312.285 205.58 312.646 206.373 313.253 206.84C313.883 207.307 314.863 207.54 316.193 207.54C318.573 207.54 319.763 206.817 319.763 205.37C319.763 204.717 319.506 204.215 318.993 203.865C318.48 203.515 317.558 203.223 316.228 202.99L314.163 202.64C310.22 201.987 308.248 200.167 308.248 197.18C308.248 195.477 308.901 194.147 310.208 193.19C311.515 192.21 313.358 191.72 315.738 191.72C320.895 191.72 323.555 193.762 323.718 197.845H319.553C319.506 196.772 319.168 196.013 318.538 195.57C317.908 195.103 316.975 194.87 315.738 194.87C313.638 194.87 312.588 195.57 312.588 196.97C312.588 197.577 312.821 198.055 313.288 198.405C313.755 198.732 314.525 198.988 315.598 199.175L317.873 199.525C320.066 199.922 321.653 200.552 322.633 201.415C323.636 202.278 324.138 203.48 324.138 205.02C324.138 206.84 323.438 208.24 322.038 209.22C320.638 210.2 318.666 210.69 316.123 210.69ZM335.625 192.14V195.5H332.055V205.265C332.055 205.848 332.207 206.257 332.51 206.49C332.837 206.723 333.374 206.84 334.12 206.84H335.625V210.2C334.669 210.293 333.899 210.34 333.315 210.34C331.355 210.34 329.92 209.978 329.01 209.255C328.124 208.508 327.68 207.33 327.68 205.72V195.5H324.88V192.14H327.68V186.89H332.055V192.14H335.625ZM89.0111 261.76C85.4178 261.76 82.5128 260.582 80.2961 258.225C78.0561 255.868 76.9361 252.707 76.9361 248.74C76.9361 244.75 78.0444 241.577 80.2611 239.22C82.4544 236.887 85.3711 235.72 89.0111 235.72C91.9278 235.72 94.4128 236.502 96.4661 238.065C98.5194 239.628 99.8028 241.892 100.316 244.855H95.5211C95.1011 243.222 94.3194 241.985 93.1761 241.145C92.0561 240.282 90.6678 239.85 89.0111 239.85C86.7944 239.85 85.0444 240.643 83.7611 242.23C82.5011 243.793 81.8711 245.963 81.8711 248.74C81.8711 251.54 82.5011 253.722 83.7611 255.285C85.0211 256.848 86.7711 257.63 89.0111 257.63C90.7378 257.63 92.2194 257.117 93.4561 256.09C94.6928 255.063 95.4394 253.64 95.6961 251.82H100.421C100.118 254.993 98.8811 257.443 96.7111 259.17C94.5644 260.897 91.9978 261.76 89.0111 261.76ZM113.007 242.72C114.967 242.72 116.507 243.292 117.627 244.435C118.771 245.555 119.342 247.153 119.342 249.23V261.2H114.932V249.965C114.932 247.678 113.801 246.535 111.537 246.535C110.417 246.535 109.461 246.943 108.667 247.76C107.897 248.553 107.512 249.662 107.512 251.085V261.2H103.102V236.28H107.512V245.555C108.889 243.665 110.721 242.72 113.007 242.72ZM139.167 261.2H134.757C134.547 260.827 134.383 260.092 134.267 258.995C133.053 260.745 131.117 261.62 128.457 261.62C126.473 261.62 124.887 261.142 123.697 260.185C122.53 259.228 121.947 257.898 121.947 256.195C121.947 252.905 124.257 251.027 128.877 250.56L131.607 250.315C132.517 250.198 133.17 249.988 133.567 249.685C133.963 249.358 134.162 248.88 134.162 248.25C134.162 247.48 133.905 246.92 133.392 246.57C132.902 246.197 132.062 246.01 130.872 246.01C129.588 246.01 128.667 246.232 128.107 246.675C127.547 247.095 127.22 247.83 127.127 248.88H122.787C123.043 244.773 125.75 242.72 130.907 242.72C135.923 242.72 138.432 244.528 138.432 248.145V257.77C138.432 259.357 138.677 260.5 139.167 261.2ZM129.507 258.47C130.883 258.47 132.003 258.097 132.867 257.35C133.73 256.58 134.162 255.483 134.162 254.06V252.415C133.742 252.788 133.053 253.033 132.097 253.15L129.717 253.43C128.55 253.57 127.71 253.85 127.197 254.27C126.707 254.667 126.462 255.25 126.462 256.02C126.462 256.79 126.718 257.397 127.232 257.84C127.768 258.26 128.527 258.47 129.507 258.47ZM151.699 242.72C153.659 242.72 155.199 243.292 156.319 244.435C157.462 245.555 158.034 247.153 158.034 249.23V261.2H153.624V249.965C153.624 247.678 152.492 246.535 150.229 246.535C149.109 246.535 148.152 246.943 147.359 247.76C146.589 248.553 146.204 249.662 146.204 251.085V261.2H141.794V243.14H146.064V245.73C147.44 243.723 149.319 242.72 151.699 242.72ZM174.638 245.625V243.14H178.908V260.605C178.908 263.055 178.126 264.98 176.563 266.38C175.023 267.78 172.83 268.48 169.983 268.48C167.463 268.48 165.48 267.92 164.033 266.8C162.61 265.68 161.828 264.14 161.688 262.18H166.028C166.238 264.117 167.58 265.085 170.053 265.085C171.5 265.085 172.596 264.712 173.343 263.965C174.113 263.218 174.498 262.133 174.498 260.71V258.435C173.191 260.232 171.348 261.13 168.968 261.13C166.518 261.13 164.546 260.278 163.053 258.575C161.56 256.918 160.813 254.702 160.813 251.925C160.813 249.125 161.56 246.897 163.053 245.24C164.523 243.56 166.483 242.72 168.933 242.72C171.476 242.72 173.378 243.688 174.638 245.625ZM169.948 257.49C171.418 257.49 172.561 257 173.378 256.02C174.195 255.04 174.603 253.675 174.603 251.925C174.603 250.175 174.195 248.81 173.378 247.83C172.561 246.85 171.418 246.36 169.948 246.36C168.525 246.36 167.393 246.862 166.553 247.865C165.736 248.845 165.328 250.21 165.328 251.96C165.328 253.687 165.736 255.04 166.553 256.02C167.393 257 168.525 257.49 169.948 257.49ZM186.843 240.795H182.503V236.665H186.843V240.795ZM186.878 261.2H182.468V243.14H186.878V261.2ZM200.337 242.72C202.297 242.72 203.837 243.292 204.957 244.435C206.1 245.555 206.672 247.153 206.672 249.23V261.2H202.262V249.965C202.262 247.678 201.13 246.535 198.867 246.535C197.747 246.535 196.79 246.943 195.997 247.76C195.227 248.553 194.842 249.662 194.842 251.085V261.2H190.432V243.14H194.702V245.73C196.078 243.723 197.957 242.72 200.337 242.72ZM223.276 245.625V243.14H227.546V260.605C227.546 263.055 226.764 264.98 225.201 266.38C223.661 267.78 221.467 268.48 218.621 268.48C216.101 268.48 214.117 267.92 212.671 266.8C211.247 265.68 210.466 264.14 210.326 262.18H214.666C214.876 264.117 216.217 265.085 218.691 265.085C220.137 265.085 221.234 264.712 221.981 263.965C222.751 263.218 223.136 262.133 223.136 260.71V258.435C221.829 260.232 219.986 261.13 217.606 261.13C215.156 261.13 213.184 260.278 211.691 258.575C210.197 256.918 209.451 254.702 209.451 251.925C209.451 249.125 210.197 246.897 211.691 245.24C213.161 243.56 215.121 242.72 217.571 242.72C220.114 242.72 222.016 243.688 223.276 245.625ZM218.586 257.49C220.056 257.49 221.199 257 222.016 256.02C222.832 255.04 223.241 253.675 223.241 251.925C223.241 250.175 222.832 248.81 222.016 247.83C221.199 246.85 220.056 246.36 218.586 246.36C217.162 246.36 216.031 246.862 215.191 247.865C214.374 248.845 213.966 250.21 213.966 251.96C213.966 253.687 214.374 255.04 215.191 256.02C216.031 257 217.162 257.49 218.586 257.49ZM263.369 246.325L265.994 236.28H270.894L263.999 261.2H258.679L256.019 250.84C254.922 246.29 254.246 243.35 253.989 242.02C253.336 245.123 252.659 248.063 251.959 250.84L249.299 261.2H244.014L237.084 236.28H242.019L244.609 246.325C245.822 251.178 246.581 254.34 246.884 255.81C247.631 252.31 248.342 249.137 249.019 246.29L251.574 236.28H256.439L258.994 246.29C259.647 248.95 260.347 252.135 261.094 255.845C261.584 253.675 262.342 250.502 263.369 246.325ZM288.324 252.17C288.324 255.017 287.484 257.303 285.804 259.03C284.124 260.757 281.907 261.62 279.154 261.62C276.4 261.62 274.184 260.757 272.504 259.03C270.8 257.327 269.949 255.04 269.949 252.17C269.949 249.3 270.8 247.013 272.504 245.31C274.184 243.583 276.4 242.72 279.154 242.72C281.907 242.72 284.124 243.572 285.804 245.275C287.484 246.978 288.324 249.277 288.324 252.17ZM275.689 256.475C276.529 257.478 277.684 257.98 279.154 257.98C280.624 257.98 281.767 257.478 282.584 256.475C283.424 255.448 283.844 254.013 283.844 252.17C283.844 250.327 283.424 248.903 282.584 247.9C281.767 246.873 280.624 246.36 279.154 246.36C277.684 246.36 276.529 246.862 275.689 247.865C274.872 248.868 274.464 250.303 274.464 252.17C274.464 254.037 274.872 255.472 275.689 256.475ZM300.751 242.86C301.147 242.86 301.509 242.883 301.836 242.93V246.99H300.716C299.036 246.99 297.741 247.422 296.831 248.285C295.944 249.125 295.501 250.373 295.501 252.03V261.2H291.091V243.14H295.361V246.36C296.364 244.027 298.161 242.86 300.751 242.86ZM308.626 261.2H304.216V236.28H308.626V261.2ZM325.06 245.485V236.28H329.47V261.2H325.2V258.68C323.87 260.64 321.968 261.62 319.495 261.62C316.998 261.62 315.026 260.757 313.58 259.03C312.11 257.303 311.375 255.017 311.375 252.17C311.375 249.277 312.11 246.978 313.58 245.275C315.003 243.572 316.975 242.72 319.495 242.72C321.921 242.72 323.776 243.642 325.06 245.485ZM315.89 252.31C315.89 254.177 316.298 255.588 317.115 256.545C317.931 257.502 319.063 257.98 320.51 257.98C321.956 257.98 323.1 257.478 323.94 256.475C324.756 255.472 325.165 254.037 325.165 252.17C325.165 250.303 324.756 248.868 323.94 247.865C323.123 246.862 321.98 246.36 320.51 246.36C319.086 246.36 317.955 246.885 317.115 247.935C316.298 248.985 315.89 250.443 315.89 252.31ZM81.9483 319.06H77.8883C74.9717 313.997 73.5133 308.292 73.5133 301.945C73.5133 295.482 74.9717 289.742 77.8883 284.725H81.9483C80.5717 287.315 79.58 289.975 78.9733 292.705C78.3667 295.412 78.0633 298.492 78.0633 301.945C78.0633 305.282 78.3667 308.303 78.9733 311.01C79.58 313.717 80.5717 316.4 81.9483 319.06ZM84.1897 287.28H95.1447C97.9214 287.28 100.08 288.015 101.62 289.485C103.183 290.932 103.965 292.903 103.965 295.4C103.965 297.873 103.183 299.845 101.62 301.315C100.08 302.762 97.9214 303.485 95.1447 303.485H88.9147V312.2H84.1897V287.28ZM88.9147 299.425H94.9347C96.3114 299.425 97.3614 299.087 98.0847 298.41C98.8314 297.71 99.2047 296.707 99.2047 295.4C99.2047 294.093 98.8314 293.09 98.0847 292.39C97.3614 291.69 96.3114 291.34 94.9347 291.34H88.9147V299.425ZM113.472 312.69C108.198 312.69 105.445 310.613 105.212 306.46H109.517C109.633 307.58 109.995 308.373 110.602 308.84C111.232 309.307 112.212 309.54 113.542 309.54C115.922 309.54 117.112 308.817 117.112 307.37C117.112 306.717 116.855 306.215 116.342 305.865C115.828 305.515 114.907 305.223 113.577 304.99L111.512 304.64C107.568 303.987 105.597 302.167 105.597 299.18C105.597 297.477 106.25 296.147 107.557 295.19C108.863 294.21 110.707 293.72 113.087 293.72C118.243 293.72 120.903 295.762 121.067 299.845H116.902C116.855 298.772 116.517 298.013 115.887 297.57C115.257 297.103 114.323 296.87 113.087 296.87C110.987 296.87 109.937 297.57 109.937 298.97C109.937 299.577 110.17 300.055 110.637 300.405C111.103 300.732 111.873 300.988 112.947 301.175L115.222 301.525C117.415 301.922 119.002 302.552 119.982 303.415C120.985 304.278 121.487 305.48 121.487 307.02C121.487 308.84 120.787 310.24 119.387 311.22C117.987 312.2 116.015 312.69 113.472 312.69ZM140.877 303.485V304.535H127.367C127.531 306.075 128.009 307.242 128.802 308.035C129.619 308.805 130.704 309.19 132.057 309.19C134.064 309.19 135.441 308.327 136.187 306.6H140.422C139.956 308.443 138.976 309.913 137.482 311.01C135.989 312.083 134.169 312.62 132.022 312.62C129.339 312.62 127.169 311.757 125.512 310.03C123.856 308.303 123.027 306.017 123.027 303.17C123.027 300.323 123.844 298.037 125.477 296.31C127.134 294.583 129.292 293.72 131.952 293.72C134.682 293.72 136.852 294.618 138.462 296.415C140.072 298.212 140.877 300.568 140.877 303.485ZM131.917 297.15C129.327 297.15 127.822 298.585 127.402 301.455H136.467C136.281 300.125 135.791 299.075 134.997 298.305C134.204 297.535 133.177 297.15 131.917 297.15ZM155.111 304.255V294.14H159.521V312.2H155.251V309.575C153.874 311.605 151.984 312.62 149.581 312.62C147.644 312.62 146.104 312.06 144.961 310.94C143.841 309.797 143.281 308.187 143.281 306.11V294.14H147.691V305.375C147.691 307.662 148.822 308.805 151.086 308.805C152.206 308.805 153.151 308.408 153.921 307.615C154.714 306.798 155.111 305.678 155.111 304.255ZM175.985 296.485V287.28H180.395V312.2H176.125V309.68C174.795 311.64 172.893 312.62 170.42 312.62C167.923 312.62 165.952 311.757 164.505 310.03C163.035 308.303 162.3 306.017 162.3 303.17C162.3 300.277 163.035 297.978 164.505 296.275C165.928 294.572 167.9 293.72 170.42 293.72C172.847 293.72 174.702 294.642 175.985 296.485ZM166.815 303.31C166.815 305.177 167.223 306.588 168.04 307.545C168.857 308.502 169.988 308.98 171.435 308.98C172.882 308.98 174.025 308.478 174.865 307.475C175.682 306.472 176.09 305.037 176.09 303.17C176.09 301.303 175.682 299.868 174.865 298.865C174.048 297.862 172.905 297.36 171.435 297.36C170.012 297.36 168.88 297.885 168.04 298.935C167.223 299.985 166.815 301.443 166.815 303.31ZM201.524 303.17C201.524 306.017 200.684 308.303 199.004 310.03C197.324 311.757 195.108 312.62 192.354 312.62C189.601 312.62 187.384 311.757 185.704 310.03C184.001 308.327 183.149 306.04 183.149 303.17C183.149 300.3 184.001 298.013 185.704 296.31C187.384 294.583 189.601 293.72 192.354 293.72C195.108 293.72 197.324 294.572 199.004 296.275C200.684 297.978 201.524 300.277 201.524 303.17ZM188.889 307.475C189.729 308.478 190.884 308.98 192.354 308.98C193.824 308.98 194.968 308.478 195.784 307.475C196.624 306.448 197.044 305.013 197.044 303.17C197.044 301.327 196.624 299.903 195.784 298.9C194.968 297.873 193.824 297.36 192.354 297.36C190.884 297.36 189.729 297.862 188.889 298.865C188.073 299.868 187.664 301.303 187.664 303.17C187.664 305.037 188.073 306.472 188.889 307.475ZM235.925 299.74C235.925 303.613 234.805 306.74 232.565 309.12L235.505 312.305L233.055 314.65L229.87 311.22C228.003 312.247 225.88 312.76 223.5 312.76C219.767 312.76 216.757 311.57 214.47 309.19C212.183 306.787 211.04 303.637 211.04 299.74C211.04 295.843 212.183 292.693 214.47 290.29C216.757 287.91 219.767 286.72 223.5 286.72C227.233 286.72 230.243 287.91 232.53 290.29C234.793 292.647 235.925 295.797 235.925 299.74ZM223.5 308.595C224.69 308.595 225.787 308.362 226.79 307.895L223.92 304.78L226.405 302.435L229.38 305.69C230.477 304.103 231.025 302.12 231.025 299.74C231.025 297.01 230.348 294.852 228.995 293.265C227.642 291.678 225.81 290.885 223.5 290.885C221.237 290.885 219.417 291.678 218.04 293.265C216.663 294.852 215.975 297.01 215.975 299.74C215.975 302.47 216.663 304.628 218.04 306.215C219.417 307.802 221.237 308.595 223.5 308.595ZM250.438 304.255V294.14H254.848V312.2H250.578V309.575C249.201 311.605 247.311 312.62 244.908 312.62C242.971 312.62 241.431 312.06 240.288 310.94C239.168 309.797 238.608 308.187 238.608 306.11V294.14H243.018V305.375C243.018 307.662 244.149 308.805 246.413 308.805C247.533 308.805 248.478 308.408 249.248 307.615C250.041 306.798 250.438 305.678 250.438 304.255ZM276.002 303.17C276.002 306.017 275.162 308.303 273.482 310.03C271.802 311.757 269.585 312.62 266.832 312.62C264.079 312.62 261.862 311.757 260.182 310.03C258.479 308.327 257.627 306.04 257.627 303.17C257.627 300.3 258.479 298.013 260.182 296.31C261.862 294.583 264.079 293.72 266.832 293.72C269.585 293.72 271.802 294.572 273.482 296.275C275.162 297.978 276.002 300.277 276.002 303.17ZM263.367 307.475C264.207 308.478 265.362 308.98 266.832 308.98C268.302 308.98 269.445 308.478 270.262 307.475C271.102 306.448 271.522 305.013 271.522 303.17C271.522 301.327 271.102 299.903 270.262 298.9C269.445 297.873 268.302 297.36 266.832 297.36C265.362 297.36 264.207 297.862 263.367 298.865C262.55 299.868 262.142 301.303 262.142 303.17C262.142 305.037 262.55 306.472 263.367 307.475ZM287.261 294.14V297.5H283.691V307.265C283.691 307.848 283.843 308.257 284.146 308.49C284.473 308.723 285.009 308.84 285.756 308.84H287.261V312.2C286.304 312.293 285.534 312.34 284.951 312.34C282.991 312.34 281.556 311.978 280.646 311.255C279.759 310.508 279.316 309.33 279.316 307.72V297.5H276.516V294.14H279.316V288.89H283.691V294.14H287.261ZM306.546 303.485V304.535H293.036C293.2 306.075 293.678 307.242 294.471 308.035C295.288 308.805 296.373 309.19 297.726 309.19C299.733 309.19 301.11 308.327 301.856 306.6H306.091C305.625 308.443 304.645 309.913 303.151 311.01C301.658 312.083 299.838 312.62 297.691 312.62C295.008 312.62 292.838 311.757 291.181 310.03C289.525 308.303 288.696 306.017 288.696 303.17C288.696 300.323 289.513 298.037 291.146 296.31C292.803 294.583 294.961 293.72 297.621 293.72C300.351 293.72 302.521 294.618 304.131 296.415C305.741 298.212 306.546 300.568 306.546 303.485ZM297.586 297.15C294.996 297.15 293.491 298.585 293.071 301.455H302.136C301.95 300.125 301.46 299.075 300.666 298.305C299.873 297.535 298.846 297.15 297.586 297.15ZM316.465 312.69C311.191 312.69 308.438 310.613 308.205 306.46H312.51C312.626 307.58 312.988 308.373 313.595 308.84C314.225 309.307 315.205 309.54 316.535 309.54C318.915 309.54 320.105 308.817 320.105 307.37C320.105 306.717 319.848 306.215 319.335 305.865C318.821 305.515 317.9 305.223 316.57 304.99L314.505 304.64C310.561 303.987 308.59 302.167 308.59 299.18C308.59 297.477 309.243 296.147 310.55 295.19C311.856 294.21 313.7 293.72 316.08 293.72C321.236 293.72 323.896 295.762 324.06 299.845H319.895C319.848 298.772 319.51 298.013 318.88 297.57C318.25 297.103 317.316 296.87 316.08 296.87C313.98 296.87 312.93 297.57 312.93 298.97C312.93 299.577 313.163 300.055 313.63 300.405C314.096 300.732 314.866 300.988 315.94 301.175L318.215 301.525C320.408 301.922 321.995 302.552 322.975 303.415C323.978 304.278 324.48 305.48 324.48 307.02C324.48 308.84 323.78 310.24 322.38 311.22C320.98 312.2 319.008 312.69 316.465 312.69ZM329.276 319.06H325.251C326.627 316.4 327.619 313.717 328.226 311.01C328.832 308.303 329.136 305.282 329.136 301.945C329.136 298.492 328.832 295.412 328.226 292.705C327.619 289.975 326.627 287.315 325.251 284.725H329.276C332.216 289.742 333.686 295.482 333.686 301.945C333.686 308.362 332.216 314.067 329.276 319.06Z" fill="#B1B1B1"/>
<g filter="url(#filter2_d)">
<line x1="33.0004" y1="92.8999" x2="374.6" y2="92.8999" stroke="black" stroke-width="3"/>
</g>
<g filter="url(#filter3_i)">
<path d="M75.3154 86.4239C68.958 86.4239 64.0514 85.0159 60.5954 82.1999C57.1394 79.3839 55.39 75.4586 55.3474 70.4239H65.8434C65.886 73.2399 66.6967 75.2026 68.2754 76.3119C69.8967 77.4212 72.3714 77.9759 75.6994 77.9759C80.862 77.9759 83.4434 76.2266 83.4434 72.7279C83.4434 71.1919 82.8674 70.0612 81.7154 69.3359C80.606 68.5679 78.4514 67.8852 75.2514 67.2879L71.5394 66.5839C61.3847 64.8772 56.3074 60.1199 56.3074 52.3119C56.3074 48.1732 57.8434 44.8879 60.9154 42.4559C64.03 40.0239 68.4247 38.8079 74.0994 38.8079C80.158 38.8079 84.7874 40.0879 87.9874 42.6479C91.1874 45.2079 92.894 48.8772 93.1074 53.6559H82.8674C82.7394 51.4372 81.9927 49.8159 80.6274 48.7919C79.3047 47.7679 77.1927 47.2559 74.2914 47.2559C69.6407 47.2559 67.3154 48.7919 67.3154 51.8639C67.3154 53.3999 67.87 54.5732 68.9794 55.3839C70.1314 56.1946 72.158 56.8772 75.0594 57.4319L78.8994 58.1359C84.4034 59.1172 88.3927 60.7172 90.8674 62.9359C93.3847 65.1119 94.6434 68.1412 94.6434 72.0239C94.6434 76.6746 92.9367 80.2372 89.5234 82.7119C86.11 85.1866 81.374 86.4239 75.3154 86.4239ZM94.7759 39.8319H133.624V49.4959H119.608V85.3999H108.728V49.4959H94.7759V39.8319ZM156.411 86.4239C150.48 86.4239 145.702 84.8239 142.075 81.6239C138.448 78.5092 136.635 73.9866 136.635 68.0559V39.8319H147.451V68.1839C147.451 71.0852 148.219 73.3039 149.755 74.8399C151.334 76.3332 153.552 77.0799 156.411 77.0799C159.27 77.0799 161.488 76.3332 163.067 74.8399C164.646 73.3039 165.435 71.0852 165.435 68.1839V39.8319H176.251V68.0559C176.251 73.9012 174.48 78.4239 170.939 81.6239C167.44 84.8239 162.598 86.4239 156.411 86.4239ZM182.525 39.8319H201.213C208.722 39.8319 214.482 41.8586 218.493 45.9119C222.504 49.9226 224.509 55.4906 224.509 62.6159C224.509 69.7412 222.504 75.3306 218.493 79.3839C214.482 83.3946 208.722 85.3999 201.213 85.3999H182.525V39.8319ZM193.341 76.2479H201.021C204.946 76.2479 207.954 75.1172 210.045 72.8559C212.178 70.5519 213.245 67.1386 213.245 62.6159C213.245 58.0932 212.178 54.7012 210.045 52.4399C207.954 50.1359 204.946 48.9839 201.021 48.9839H193.341V76.2479ZM264.341 39.8319V49.4959H240.341V57.7519H262.165V66.8399H240.341V75.7359H264.277V85.3999H229.525V39.8319H264.341ZM299.032 49.3679V39.8319H309.336V85.3999H297.688L286.552 67.2239C283.139 61.5492 280.771 57.4106 279.448 54.8079C279.619 60.6532 279.704 67.6719 279.704 75.8639V85.3999H269.4V39.8319H281.048L292.184 58.0079C295.384 63.2986 297.752 67.4799 299.288 70.5519C299.117 64.6212 299.032 57.5599 299.032 49.3679ZM313.463 39.8319H352.311V49.4959H338.295V85.3999H327.415V49.4959H313.463V39.8319Z" fill="#DDDDDD"/>
</g>
</g>
<defs>
<filter id="filter0_d" x="0" y="0" width="408" height="408" filterUnits="userSpaceOnUse" color-interpolation-filters="sRGB">
<feFlood flood-opacity="0" result="BackgroundImageFix"/>
<feColorMatrix in="SourceAlpha" type="matrix" values="0 0 0 0 0 0 0 0 0 0 0 0 0 0 0 0 0 0 127 0"/>
<feOffset dy="4"/>
<feGaussianBlur stdDeviation="2"/>
<feColorMatrix type="matrix" values="0 0 0 0 0 0 0 0 0 0 0 0 0 0 0 0 0 0 0.25 0"/>
<feBlend mode="normal" in2="BackgroundImageFix" result="effect1_dropShadow"/>
<feBlend mode="normal" in="SourceGraphic" in2="effect1_dropShadow" result="shape"/>
</filter>
<filter id="filter1_d" x="35.9999" y="115.2" width="336" height="273.6" filterUnits="userSpaceOnUse" color-interpolation-filters="sRGB">
<feFlood flood-opacity="0" result="BackgroundImageFix"/>
<feColorMatrix in="SourceAlpha" type="matrix" values="0 0 0 0 0 0 0 0 0 0 0 0 0 0 0 0 0 0 127 0"/>
<feOffset dy="4"/>
<feGaussianBlur stdDeviation="2"/>
<feColorMatrix type="matrix" values="0 0 0 0 0 0 0 0 0 0 0 0 0 0 0 0 0 0 0.25 0"/>
<feBlend mode="normal" in2="BackgroundImageFix" result="effect1_dropShadow"/>
<feBlend mode="normal" in="SourceGraphic" in2="effect1_dropShadow" result="shape"/>
</filter>
<filter id="filter2_d" x="29.0004" y="91.3999" width="349.6" height="11" filterUnits="userSpaceOnUse" color-interpolation-filters="sRGB">
<feFlood flood-opacity="0" result="BackgroundImageFix"/>
<feColorMatrix in="SourceAlpha" type="matrix" values="0 0 0 0 0 0 0 0 0 0 0 0 0 0 0 0 0 0 127 0"/>
<feOffset dy="4"/>
<feGaussianBlur stdDeviation="2"/>
<feColorMatrix type="matrix" values="0 0 0 0 0 0 0 0 0 0 0 0 0 0 0 0 0 0 0.25 0"/>
<feBlend mode="normal" in2="BackgroundImageFix" result="effect1_dropShadow"/>
<feBlend mode="normal" in="SourceGraphic" in2="effect1_dropShadow" result="shape"/>
</filter>
<filter id="filter3_i" x="55.3474" y="38.8079" width="296.964" height="51.616" filterUnits="userSpaceOnUse" color-interpolation-filters="sRGB">
<feFlood flood-opacity="0" result="BackgroundImageFix"/>
<feBlend mode="normal" in="SourceGraphic" in2="BackgroundImageFix" result="shape"/>
<feColorMatrix in="SourceAlpha" type="matrix" values="0 0 0 0 0 0 0 0 0 0 0 0 0 0 0 0 0 0 127 0" result="hardAlpha"/>
<feOffset dy="4"/>
<feGaussianBlur stdDeviation="2"/>
<feComposite in2="hardAlpha" operator="arithmetic" k2="-1" k3="1"/>
<feColorMatrix type="matrix" values="0 0 0 0 0 0 0 0 0 0 0 0 0 0 0 0 0 0 0.25 0"/>
<feBlend mode="normal" in2="shape" result="effect1_innerShadow"/>
</filter>
<linearGradient id="paint0_linear" x1="204" y1="0" x2="204" y2="400" gradientUnits="userSpaceOnUse">
<stop stop-color="#2B353C"/>
<stop offset="1" stop-color="#4B6F78"/>
</linearGradient>
</defs>
</svg>
