<svg width="408" height="408" viewBox="0 0 408 408" fill="none" xmlns="http://www.w3.org/2000/svg">
<g filter="url(#filter0_d)">
<rect x="4" width="400" height="400" rx="75" fill="url(#paint0_linear)"/>
<mask id="mask0" mask-type="alpha" maskUnits="userSpaceOnUse" x="82" y="0" width="245" height="400">
<rect x="82" width="244.8" height="400" fill="#C4C4C4"/>
</mask>
<g mask="url(#mask0)">
<path d="M274.9 86.8C274.9 125.042 243.189 156.1 204 156.1C164.811 156.1 133.1 125.042 133.1 86.8C133.1 48.5581 164.811 17.5 204 17.5C243.189 17.5 274.9 48.5581 274.9 86.8Z" fill="#181818" stroke="#E8E8E8" stroke-width="3"/>
<rect x="92.3" y="174.3" width="224.2" height="447.4" rx="112.1" fill="#181818" stroke="#E8E8E8" stroke-width="3"/>
<mask id="path-5-inside-1" fill="white">
<path fill-rule="evenodd" clip-rule="evenodd" d="M218.734 232.247C210.487 239.385 198.313 239.385 190.066 232.247L154.528 201.488C150.175 197.72 147.784 192.988 147.048 188.131C163.809 178.383 183.291 172.8 204.078 172.8C225.108 172.8 244.804 178.515 261.697 188.476C260.902 193.212 258.522 197.809 254.272 201.488L218.734 232.247Z"/>
</mask>
<path fill-rule="evenodd" clip-rule="evenodd" d="M218.734 232.247C210.487 239.385 198.313 239.385 190.066 232.247L154.528 201.488C150.175 197.72 147.784 192.988 147.048 188.131C163.809 178.383 183.291 172.8 204.078 172.8C225.108 172.8 244.804 178.515 261.697 188.476C260.902 193.212 258.522 197.809 254.272 201.488L218.734 232.247Z" fill="#757575"/>
<path d="M190.066 232.247L192.03 229.978L190.066 232.247ZM218.734 232.247L216.77 229.978L218.734 232.247ZM154.528 201.488L152.565 203.756L154.528 201.488ZM147.048 188.131L145.54 185.537L143.777 186.563L144.082 188.58L147.048 188.131ZM261.697 188.476L264.655 188.972L264.996 186.939L263.22 185.892L261.697 188.476ZM254.272 201.488L252.308 199.22L254.272 201.488ZM188.103 234.515C197.477 242.628 211.323 242.628 220.697 234.515L216.77 229.978C209.65 236.141 199.15 236.141 192.03 229.978L188.103 234.515ZM152.565 203.756L188.103 234.515L192.03 229.978L156.492 199.22L152.565 203.756ZM144.082 188.58C144.922 194.126 147.657 199.509 152.565 203.756L156.492 199.22C152.692 195.931 150.646 191.851 150.015 187.682L144.082 188.58ZM148.557 190.724C164.872 181.235 183.835 175.8 204.078 175.8V169.8C182.747 169.8 162.747 175.53 145.54 185.537L148.557 190.724ZM204.078 175.8C224.558 175.8 243.729 181.364 260.173 191.06L263.22 185.892C245.879 175.666 225.659 169.8 204.078 169.8V175.8ZM256.235 203.756C261.025 199.61 263.748 194.381 264.655 188.972L258.738 187.98C258.056 192.043 256.019 196.008 252.308 199.22L256.235 203.756ZM220.697 234.515L256.235 203.756L252.308 199.22L216.77 229.978L220.697 234.515Z" fill="#E8E8E8" mask="url(#path-5-inside-1)"/>
<mask id="path-7-inside-2" fill="white">
<path fill-rule="evenodd" clip-rule="evenodd" d="M216.044 213.044C209.114 219.119 198.886 219.119 191.956 213.044L162.094 186.866C158.594 183.798 156.603 179.979 155.896 176.033C169.475 166.784 185.88 161.378 203.548 161.378C221.563 161.378 238.265 166.999 251.996 176.583C251.208 180.333 249.244 183.941 245.906 186.866L216.044 213.044Z"/>
</mask>
<path fill-rule="evenodd" clip-rule="evenodd" d="M216.044 213.044C209.114 219.119 198.886 219.119 191.956 213.044L162.094 186.866C158.594 183.798 156.603 179.979 155.896 176.033C169.475 166.784 185.88 161.378 203.548 161.378C221.563 161.378 238.265 166.999 251.996 176.583C251.208 180.333 249.244 183.941 245.906 186.866L216.044 213.044Z" fill="#212121"/>
<path d="M191.956 213.044L193.933 210.788L191.956 213.044ZM216.044 213.044L218.022 215.3L216.044 213.044ZM162.094 186.866L164.072 184.61L162.094 186.866ZM155.896 176.033L154.208 173.554L152.601 174.648L152.943 176.562L155.896 176.033ZM251.996 176.583L254.932 177.2L255.34 175.259L253.714 174.123L251.996 176.583ZM245.906 186.866L243.928 184.61H243.928L245.906 186.866ZM189.978 215.3C198.04 222.367 209.96 222.367 218.022 215.3L214.067 210.788C208.269 215.871 199.731 215.871 193.933 210.788L189.978 215.3ZM160.116 189.122L189.978 215.3L193.933 210.788L164.072 184.61L160.116 189.122ZM152.943 176.562C153.767 181.158 156.09 185.593 160.116 189.122L164.072 184.61C161.097 182.003 159.44 178.799 158.85 175.504L152.943 176.562ZM157.585 178.513C170.681 169.592 186.501 164.378 203.548 164.378V158.378C185.258 158.378 168.268 163.977 154.208 173.554L157.585 178.513ZM203.548 164.378C220.929 164.378 237.035 169.799 250.279 179.043L253.714 174.123C239.495 164.199 222.197 158.378 203.548 158.378V164.378ZM247.884 189.122C251.721 185.758 254.014 181.57 254.932 177.2L249.061 175.966C248.403 179.095 246.766 182.123 243.928 184.61L247.884 189.122ZM218.022 215.3L247.884 189.122L243.928 184.61L214.067 210.788L218.022 215.3Z" fill="white" mask="url(#path-7-inside-2)"/>
<mask id="path-9-inside-3" fill="white">
<path fill-rule="evenodd" clip-rule="evenodd" d="M310.947 246.906C315.508 259.207 318 272.512 318 286.4V509.6C318 522.631 315.806 535.149 311.767 546.806C287.759 543.745 269.2 523.24 269.2 498.4V295.2C269.2 270.644 287.337 250.324 310.947 246.906Z"/>
</mask>
<path fill-rule="evenodd" clip-rule="evenodd" d="M310.947 246.906C315.508 259.207 318 272.512 318 286.4V509.6C318 522.631 315.806 535.149 311.767 546.806C287.759 543.745 269.2 523.24 269.2 498.4V295.2C269.2 270.644 287.337 250.324 310.947 246.906Z" fill="#646464"/>
<path d="M310.947 246.906L313.759 245.863C313.268 244.537 311.917 243.734 310.517 243.937L310.947 246.906ZM311.767 546.806L311.388 549.782C312.796 549.961 314.137 549.129 314.602 547.788L311.767 546.806ZM308.134 247.949C312.573 259.921 315 272.874 315 286.4H321C321 272.151 318.443 258.493 313.759 245.863L308.134 247.949ZM315 286.4V509.6H321V286.4H315ZM315 509.6C315 522.292 312.863 534.479 308.933 545.824L314.602 547.788C318.749 535.82 321 522.97 321 509.6H315ZM312.147 543.83C289.617 540.958 272.2 521.711 272.2 498.4H266.2C266.2 524.769 285.901 546.533 311.388 549.782L312.147 543.83ZM272.2 498.4V295.2H266.2V498.4H272.2ZM272.2 295.2C272.2 272.156 289.221 253.082 311.376 249.875L310.517 243.937C285.453 247.565 266.2 269.132 266.2 295.2H272.2Z" fill="#DDDDDD" mask="url(#path-9-inside-3)"/>
<mask id="path-11-inside-4" fill="white">
<path fill-rule="evenodd" clip-rule="evenodd" d="M97.8534 246.906C93.2921 259.207 90.8 272.512 90.8 286.4V509.6C90.8 522.631 92.9941 535.149 97.0328 546.806C121.041 543.745 139.6 523.24 139.6 498.4V295.2C139.6 270.644 121.463 250.324 97.8534 246.906Z"/>
</mask>
<path fill-rule="evenodd" clip-rule="evenodd" d="M97.8534 246.906C93.2921 259.207 90.8 272.512 90.8 286.4V509.6C90.8 522.631 92.9941 535.149 97.0328 546.806C121.041 543.745 139.6 523.24 139.6 498.4V295.2C139.6 270.644 121.463 250.324 97.8534 246.906Z" fill="#646464"/>
<path d="M97.8534 246.906L98.2832 243.937C96.8834 243.734 95.5323 244.537 95.0405 245.863L97.8534 246.906ZM97.0328 546.806L94.1981 547.788C94.6629 549.129 96.0041 549.961 97.4122 549.782L97.0328 546.806ZM93.8 286.4C93.8 272.874 96.2269 259.921 100.666 247.949L95.0405 245.863C90.3573 258.493 87.8 272.151 87.8 286.4H93.8ZM93.8 509.6V286.4H87.8V509.6H93.8ZM99.8675 545.824C95.9367 534.479 93.8 522.292 93.8 509.6H87.8C87.8 522.97 90.0514 535.82 94.1981 547.788L99.8675 545.824ZM136.6 498.4C136.6 521.711 119.183 540.958 96.6534 543.83L97.4122 549.782C122.899 546.533 142.6 524.769 142.6 498.4H136.6ZM136.6 295.2V498.4H142.6V295.2H136.6ZM97.4235 249.875C119.579 253.082 136.6 272.156 136.6 295.2H142.6C142.6 269.132 123.347 247.565 98.2832 243.937L97.4235 249.875Z" fill="#DDDDDD" mask="url(#path-11-inside-4)"/>
</g>
<g style="mix-blend-mode:multiply" filter="url(#filter1_d)">
<rect x="39" y="115.2" width="328" height="265.6" rx="42" fill="#696969"/>
</g>
<path d="M185.628 165.79V159.28H190.178V184.2H184.928L177.998 173.105C176.108 170.142 174.627 167.645 173.553 165.615C173.647 168.228 173.693 172.253 173.693 177.69V184.2H169.143V159.28H174.393L181.358 170.375C183.435 173.735 184.905 176.232 185.768 177.865C185.675 174.388 185.628 170.363 185.628 165.79ZM210.997 175.485V176.535H197.487C197.65 178.075 198.129 179.242 198.922 180.035C199.739 180.805 200.824 181.19 202.177 181.19C204.184 181.19 205.56 180.327 206.307 178.6H210.542C210.075 180.443 209.095 181.913 207.602 183.01C206.109 184.083 204.289 184.62 202.142 184.62C199.459 184.62 197.289 183.757 195.632 182.03C193.975 180.303 193.147 178.017 193.147 175.17C193.147 172.323 193.964 170.037 195.597 168.31C197.254 166.583 199.412 165.72 202.072 165.72C204.802 165.72 206.972 166.618 208.582 168.415C210.192 170.212 210.997 172.568 210.997 175.485ZM202.037 169.15C199.447 169.15 197.942 170.585 197.522 173.455H206.587C206.4 172.125 205.91 171.075 205.117 170.305C204.324 169.535 203.297 169.15 202.037 169.15ZM233.221 172.895L235.251 166.14H239.976L234.026 184.2H229.406L227.131 176.78C226.268 173.747 225.754 171.95 225.591 171.39C225.521 171.647 225.019 173.443 224.086 176.78L221.846 184.2H217.226L211.276 166.14H216.001L218.031 172.895C218.544 174.505 219.139 176.593 219.816 179.16C220.469 176.57 221.041 174.47 221.531 172.86L223.526 166.14H227.726L229.721 172.86C230.211 174.47 230.783 176.57 231.436 179.16C232.043 176.85 232.638 174.762 233.221 172.895ZM80.2876 214.795H75.9476V210.665H80.2876V214.795ZM80.3226 235.2H75.9126V217.14H80.3226V235.2ZM93.7815 216.72C95.7415 216.72 97.2815 217.292 98.4015 218.435C99.5448 219.555 100.116 221.153 100.116 223.23V235.2H95.7065V223.965C95.7065 221.678 94.5748 220.535 92.3115 220.535C91.1915 220.535 90.2348 220.943 89.4415 221.76C88.6715 222.553 88.2865 223.662 88.2865 225.085V235.2H83.8765V217.14H88.1465V219.73C89.5231 217.723 91.4015 216.72 93.7815 216.72ZM112.5 217.14V220.5H108.93V230.265C108.93 230.848 109.082 231.257 109.385 231.49C109.712 231.723 110.249 231.84 110.995 231.84H112.5V235.2C111.544 235.293 110.774 235.34 110.19 235.34C108.23 235.34 106.795 234.978 105.885 234.255C104.999 233.508 104.555 232.33 104.555 230.72V220.5H101.755V217.14H104.555V211.89H108.93V217.14H112.5ZM131.786 226.485V227.535H118.276C118.439 229.075 118.917 230.242 119.711 231.035C120.527 231.805 121.612 232.19 122.966 232.19C124.972 232.19 126.349 231.327 127.096 229.6H131.331C130.864 231.443 129.884 232.913 128.391 234.01C126.897 235.083 125.077 235.62 122.931 235.62C120.247 235.62 118.077 234.757 116.421 233.03C114.764 231.303 113.936 229.017 113.936 226.17C113.936 223.323 114.752 221.037 116.386 219.31C118.042 217.583 120.201 216.72 122.861 216.72C125.591 216.72 127.761 217.618 129.371 219.415C130.981 221.212 131.786 223.568 131.786 226.485ZM122.826 220.15C120.236 220.15 118.731 221.585 118.311 224.455H127.376C127.189 223.125 126.699 222.075 125.906 221.305C125.112 220.535 124.086 220.15 122.826 220.15ZM144.293 216.86C144.69 216.86 145.052 216.883 145.378 216.93V220.99H144.258C142.578 220.99 141.283 221.422 140.373 222.285C139.487 223.125 139.043 224.373 139.043 226.03V235.2H134.633V217.14H138.903V220.36C139.907 218.027 141.703 216.86 144.293 216.86ZM158.531 221.97L160.281 217.14H164.866L158.146 235.2H153.071L146.386 217.14H151.111L152.861 222.005C153.678 224.548 154.623 227.617 155.696 231.21C156.559 228.317 157.504 225.237 158.531 221.97ZM182.884 226.485V227.535H169.374C169.538 229.075 170.016 230.242 170.809 231.035C171.626 231.805 172.711 232.19 174.064 232.19C176.071 232.19 177.448 231.327 178.194 229.6H182.429C181.963 231.443 180.983 232.913 179.489 234.01C177.996 235.083 176.176 235.62 174.029 235.62C171.346 235.62 169.176 234.757 167.519 233.03C165.863 231.303 165.034 229.017 165.034 226.17C165.034 223.323 165.851 221.037 167.484 219.31C169.141 217.583 171.299 216.72 173.959 216.72C176.689 216.72 178.859 217.618 180.469 219.415C182.079 221.212 182.884 223.568 182.884 226.485ZM173.924 220.15C171.334 220.15 169.829 221.585 169.409 224.455H178.474C178.288 223.125 177.798 222.075 177.004 221.305C176.211 220.535 175.184 220.15 173.924 220.15ZM195.637 216.72C197.597 216.72 199.137 217.292 200.257 218.435C201.4 219.555 201.972 221.153 201.972 223.23V235.2H197.562V223.965C197.562 221.678 196.43 220.535 194.167 220.535C193.047 220.535 192.09 220.943 191.297 221.76C190.527 222.553 190.142 223.662 190.142 225.085V235.2H185.732V217.14H190.002V219.73C191.379 217.723 193.257 216.72 195.637 216.72ZM214.356 217.14V220.5H210.786V230.265C210.786 230.848 210.938 231.257 211.241 231.49C211.568 231.723 212.104 231.84 212.851 231.84H214.356V235.2C213.399 235.293 212.629 235.34 212.046 235.34C210.086 235.34 208.651 234.978 207.741 234.255C206.854 233.508 206.411 232.33 206.411 230.72V220.5H203.611V217.14H206.411V211.89H210.786V217.14H214.356ZM221.313 214.795H216.973V210.665H221.313V214.795ZM221.348 235.2H216.938V217.14H221.348V235.2ZM242.472 226.17C242.472 229.017 241.632 231.303 239.952 233.03C238.272 234.757 236.055 235.62 233.302 235.62C230.549 235.62 228.332 234.757 226.652 233.03C224.949 231.327 224.097 229.04 224.097 226.17C224.097 223.3 224.949 221.013 226.652 219.31C228.332 217.583 230.549 216.72 233.302 216.72C236.055 216.72 238.272 217.572 239.952 219.275C241.632 220.978 242.472 223.277 242.472 226.17ZM229.837 230.475C230.677 231.478 231.832 231.98 233.302 231.98C234.772 231.98 235.915 231.478 236.732 230.475C237.572 229.448 237.992 228.013 237.992 226.17C237.992 224.327 237.572 222.903 236.732 221.9C235.915 220.873 234.772 220.36 233.302 220.36C231.832 220.36 230.677 220.862 229.837 221.865C229.02 222.868 228.612 224.303 228.612 226.17C228.612 228.037 229.02 229.472 229.837 230.475ZM255.144 216.72C257.104 216.72 258.644 217.292 259.764 218.435C260.907 219.555 261.479 221.153 261.479 223.23V235.2H257.069V223.965C257.069 221.678 255.937 220.535 253.674 220.535C252.554 220.535 251.597 220.943 250.804 221.76C250.034 222.553 249.649 223.662 249.649 225.085V235.2H245.239V217.14H249.509V219.73C250.885 217.723 252.764 216.72 255.144 216.72ZM272.168 235.69C266.895 235.69 264.141 233.613 263.908 229.46H268.213C268.33 230.58 268.691 231.373 269.298 231.84C269.928 232.307 270.908 232.54 272.238 232.54C274.618 232.54 275.808 231.817 275.808 230.37C275.808 229.717 275.551 229.215 275.038 228.865C274.525 228.515 273.603 228.223 272.273 227.99L270.208 227.64C266.265 226.987 264.293 225.167 264.293 222.18C264.293 220.477 264.946 219.147 266.253 218.19C267.56 217.21 269.403 216.72 271.783 216.72C276.94 216.72 279.6 218.762 279.763 222.845H275.598C275.551 221.772 275.213 221.013 274.583 220.57C273.953 220.103 273.02 219.87 271.783 219.87C269.683 219.87 268.633 220.57 268.633 221.97C268.633 222.577 268.866 223.055 269.333 223.405C269.8 223.732 270.57 223.988 271.643 224.175L273.918 224.525C276.111 224.922 277.698 225.552 278.678 226.415C279.681 227.278 280.183 228.48 280.183 230.02C280.183 231.84 279.483 233.24 278.083 234.22C276.683 235.2 274.711 235.69 272.168 235.69ZM299.743 213.675H298.203C296.686 213.675 295.928 214.398 295.928 215.845V217.14H299.638V220.5H295.928V235.2H291.553V220.5H288.753V217.14H291.553V215.775C291.553 214.025 292.043 212.66 293.023 211.68C294.003 210.677 295.484 210.175 297.468 210.175C298.354 210.175 299.113 210.21 299.743 210.28V213.675ZM318.761 226.17C318.761 229.017 317.921 231.303 316.241 233.03C314.561 234.757 312.344 235.62 309.591 235.62C306.838 235.62 304.621 234.757 302.941 233.03C301.238 231.327 300.386 229.04 300.386 226.17C300.386 223.3 301.238 221.013 302.941 219.31C304.621 217.583 306.838 216.72 309.591 216.72C312.344 216.72 314.561 217.572 316.241 219.275C317.921 220.978 318.761 223.277 318.761 226.17ZM306.126 230.475C306.966 231.478 308.121 231.98 309.591 231.98C311.061 231.98 312.204 231.478 313.021 230.475C313.861 229.448 314.281 228.013 314.281 226.17C314.281 224.327 313.861 222.903 313.021 221.9C312.204 220.873 311.061 220.36 309.591 220.36C308.121 220.36 306.966 220.862 306.126 221.865C305.309 222.868 304.901 224.303 304.901 226.17C304.901 228.037 305.309 229.472 306.126 230.475ZM331.188 216.86C331.584 216.86 331.946 216.883 332.273 216.93V220.99H331.153C329.473 220.99 328.178 221.422 327.268 222.285C326.381 223.125 325.938 224.373 325.938 226.03V235.2H321.528V217.14H325.798V220.36C326.801 218.027 328.598 216.86 331.188 216.86ZM102.383 268.14V271.5H98.8133V281.265C98.8133 281.848 98.9649 282.257 99.2683 282.49C99.5949 282.723 100.132 282.84 100.878 282.84H102.383V286.2C101.427 286.293 100.657 286.34 100.073 286.34C98.1133 286.34 96.6783 285.978 95.7683 285.255C94.8816 284.508 94.4383 283.33 94.4383 281.72V271.5H91.6383V268.14H94.4383V262.89H98.8133V268.14H102.383ZM114.87 267.72C116.83 267.72 118.37 268.292 119.49 269.435C120.634 270.555 121.205 272.153 121.205 274.23V286.2H116.795V274.965C116.795 272.678 115.664 271.535 113.4 271.535C112.28 271.535 111.324 271.943 110.53 272.76C109.76 273.553 109.375 274.662 109.375 276.085V286.2H104.965V261.28H109.375V270.555C110.752 268.665 112.584 267.72 114.87 267.72ZM141.835 277.485V278.535H128.325C128.488 280.075 128.966 281.242 129.76 282.035C130.576 282.805 131.661 283.19 133.015 283.19C135.021 283.19 136.398 282.327 137.145 280.6H141.38C140.913 282.443 139.933 283.913 138.44 285.01C136.946 286.083 135.126 286.62 132.98 286.62C130.296 286.62 128.126 285.757 126.47 284.03C124.813 282.303 123.985 280.017 123.985 277.17C123.985 274.323 124.801 272.037 126.435 270.31C128.091 268.583 130.25 267.72 132.91 267.72C135.64 267.72 137.81 268.618 139.42 270.415C141.03 272.212 141.835 274.568 141.835 277.485ZM132.875 271.15C130.285 271.15 128.78 272.585 128.36 275.455H137.425C137.238 274.125 136.748 273.075 135.955 272.305C135.161 271.535 134.135 271.15 132.875 271.15ZM162.141 267.72C164.101 267.72 165.641 268.292 166.761 269.435C167.904 270.555 168.476 272.153 168.476 274.23V286.2H164.066V274.965C164.066 272.678 162.934 271.535 160.671 271.535C159.551 271.535 158.594 271.943 157.801 272.76C157.031 273.553 156.646 274.662 156.646 276.085V286.2H152.236V268.14H156.506V270.73C157.883 268.723 159.761 267.72 162.141 267.72ZM189.105 277.485V278.535H175.595C175.758 280.075 176.237 281.242 177.03 282.035C177.847 282.805 178.932 283.19 180.285 283.19C182.292 283.19 183.668 282.327 184.415 280.6H188.65C188.183 282.443 187.203 283.913 185.71 285.01C184.217 286.083 182.397 286.62 180.25 286.62C177.567 286.62 175.397 285.757 173.74 284.03C172.083 282.303 171.255 280.017 171.255 277.17C171.255 274.323 172.072 272.037 173.705 270.31C175.362 268.583 177.52 267.72 180.18 267.72C182.91 267.72 185.08 268.618 186.69 270.415C188.3 272.212 189.105 274.568 189.105 277.485ZM180.145 271.15C177.555 271.15 176.05 272.585 175.63 275.455H184.695C184.508 274.125 184.018 273.075 183.225 272.305C182.432 271.535 181.405 271.15 180.145 271.15ZM211.329 274.895L213.359 268.14H218.084L212.134 286.2H207.514L205.239 278.78C204.376 275.747 203.862 273.95 203.699 273.39C203.629 273.647 203.127 275.443 202.194 278.78L199.954 286.2H195.334L189.384 268.14H194.109L196.139 274.895C196.652 276.505 197.247 278.593 197.924 281.16C198.577 278.57 199.149 276.47 199.639 274.86L201.634 268.14H205.834L207.829 274.86C208.319 276.47 208.891 278.57 209.544 281.16C210.151 278.85 210.746 276.762 211.329 274.895ZM247.799 274.895L249.829 268.14H254.554L248.604 286.2H243.984L241.709 278.78C240.845 275.747 240.332 273.95 240.169 273.39C240.099 273.647 239.597 275.443 238.664 278.78L236.424 286.2H231.804L225.854 268.14H230.579L232.609 274.895C233.122 276.505 233.717 278.593 234.394 281.16C235.047 278.57 235.619 276.47 236.109 274.86L238.104 268.14H242.304L244.299 274.86C244.789 276.47 245.36 278.57 246.014 281.16C246.62 278.85 247.215 276.762 247.799 274.895ZM273.097 277.17C273.097 280.017 272.257 282.303 270.577 284.03C268.897 285.757 266.68 286.62 263.927 286.62C261.174 286.62 258.957 285.757 257.277 284.03C255.574 282.327 254.722 280.04 254.722 277.17C254.722 274.3 255.574 272.013 257.277 270.31C258.957 268.583 261.174 267.72 263.927 267.72C266.68 267.72 268.897 268.572 270.577 270.275C272.257 271.978 273.097 274.277 273.097 277.17ZM260.462 281.475C261.302 282.478 262.457 282.98 263.927 282.98C265.397 282.98 266.54 282.478 267.357 281.475C268.197 280.448 268.617 279.013 268.617 277.17C268.617 275.327 268.197 273.903 267.357 272.9C266.54 271.873 265.397 271.36 263.927 271.36C262.457 271.36 261.302 271.862 260.462 272.865C259.645 273.868 259.237 275.303 259.237 277.17C259.237 279.037 259.645 280.472 260.462 281.475ZM285.524 267.86C285.92 267.86 286.282 267.883 286.609 267.93V271.99H285.489C283.809 271.99 282.514 272.422 281.604 273.285C280.717 274.125 280.274 275.373 280.274 277.03V286.2H275.864V268.14H280.134V271.36C281.137 269.027 282.934 267.86 285.524 267.86ZM293.399 286.2H288.989V261.28H293.399V286.2ZM309.833 270.485V261.28H314.243V286.2H309.973V283.68C308.643 285.64 306.741 286.62 304.268 286.62C301.771 286.62 299.799 285.757 298.353 284.03C296.883 282.303 296.148 280.017 296.148 277.17C296.148 274.277 296.883 271.978 298.353 270.275C299.776 268.572 301.748 267.72 304.268 267.72C306.694 267.72 308.549 268.642 309.833 270.485ZM300.663 277.31C300.663 279.177 301.071 280.588 301.888 281.545C302.704 282.502 303.836 282.98 305.283 282.98C306.729 282.98 307.873 282.478 308.713 281.475C309.529 280.472 309.938 279.037 309.938 277.17C309.938 275.303 309.529 273.868 308.713 272.865C307.896 271.862 306.753 271.36 305.283 271.36C303.859 271.36 302.728 271.885 301.888 272.935C301.071 273.985 300.663 275.443 300.663 277.31ZM81.9485 344.06H77.8885C74.9718 338.997 73.5135 333.292 73.5135 326.945C73.5135 320.482 74.9718 314.742 77.8885 309.725H81.9485C80.5718 312.315 79.5801 314.975 78.9735 317.705C78.3668 320.412 78.0635 323.492 78.0635 326.945C78.0635 330.282 78.3668 333.303 78.9735 336.01C79.5801 338.717 80.5718 341.4 81.9485 344.06ZM84.1898 312.28H95.1448C97.9215 312.28 100.08 313.015 101.62 314.485C103.183 315.932 103.965 317.903 103.965 320.4C103.965 322.873 103.183 324.845 101.62 326.315C100.08 327.762 97.9215 328.485 95.1448 328.485H88.9148V337.2H84.1898V312.28ZM88.9148 324.425H94.9348C96.3115 324.425 97.3615 324.087 98.0848 323.41C98.8315 322.71 99.2048 321.707 99.2048 320.4C99.2048 319.093 98.8315 318.09 98.0848 317.39C97.3615 316.69 96.3115 316.34 94.9348 316.34H88.9148V324.425ZM113.472 337.69C108.198 337.69 105.445 335.613 105.212 331.46H109.517C109.633 332.58 109.995 333.373 110.602 333.84C111.232 334.307 112.212 334.54 113.542 334.54C115.922 334.54 117.112 333.817 117.112 332.37C117.112 331.717 116.855 331.215 116.342 330.865C115.828 330.515 114.907 330.223 113.577 329.99L111.512 329.64C107.568 328.987 105.597 327.167 105.597 324.18C105.597 322.477 106.25 321.147 107.557 320.19C108.863 319.21 110.707 318.72 113.087 318.72C118.243 318.72 120.903 320.762 121.067 324.845H116.902C116.855 323.772 116.517 323.013 115.887 322.57C115.257 322.103 114.323 321.87 113.087 321.87C110.987 321.87 109.937 322.57 109.937 323.97C109.937 324.577 110.17 325.055 110.637 325.405C111.103 325.732 111.873 325.988 112.947 326.175L115.222 326.525C117.415 326.922 119.002 327.552 119.982 328.415C120.985 329.278 121.487 330.48 121.487 332.02C121.487 333.84 120.787 335.24 119.387 336.22C117.987 337.2 116.015 337.69 113.472 337.69ZM140.878 328.485V329.535H127.368C127.531 331.075 128.009 332.242 128.803 333.035C129.619 333.805 130.704 334.19 132.058 334.19C134.064 334.19 135.441 333.327 136.188 331.6H140.423C139.956 333.443 138.976 334.913 137.483 336.01C135.989 337.083 134.169 337.62 132.023 337.62C129.339 337.62 127.169 336.757 125.513 335.03C123.856 333.303 123.028 331.017 123.028 328.17C123.028 325.323 123.844 323.037 125.478 321.31C127.134 319.583 129.293 318.72 131.953 318.72C134.683 318.72 136.853 319.618 138.463 321.415C140.073 323.212 140.878 325.568 140.878 328.485ZM131.918 322.15C129.328 322.15 127.823 323.585 127.403 326.455H136.468C136.281 325.125 135.791 324.075 134.998 323.305C134.204 322.535 133.178 322.15 131.918 322.15ZM155.111 329.255V319.14H159.521V337.2H155.251V334.575C153.874 336.605 151.984 337.62 149.581 337.62C147.644 337.62 146.104 337.06 144.961 335.94C143.841 334.797 143.281 333.187 143.281 331.11V319.14H147.691V330.375C147.691 332.662 148.822 333.805 151.086 333.805C152.206 333.805 153.151 333.408 153.921 332.615C154.714 331.798 155.111 330.678 155.111 329.255ZM175.985 321.485V312.28H180.395V337.2H176.125V334.68C174.795 336.64 172.893 337.62 170.42 337.62C167.923 337.62 165.952 336.757 164.505 335.03C163.035 333.303 162.3 331.017 162.3 328.17C162.3 325.277 163.035 322.978 164.505 321.275C165.928 319.572 167.9 318.72 170.42 318.72C172.847 318.72 174.702 319.642 175.985 321.485ZM166.815 328.31C166.815 330.177 167.223 331.588 168.04 332.545C168.857 333.502 169.988 333.98 171.435 333.98C172.882 333.98 174.025 333.478 174.865 332.475C175.682 331.472 176.09 330.037 176.09 328.17C176.09 326.303 175.682 324.868 174.865 323.865C174.048 322.862 172.905 322.36 171.435 322.36C170.012 322.36 168.88 322.885 168.04 323.935C167.223 324.985 166.815 326.443 166.815 328.31ZM201.525 328.17C201.525 331.017 200.685 333.303 199.005 335.03C197.325 336.757 195.108 337.62 192.355 337.62C189.601 337.62 187.385 336.757 185.705 335.03C184.001 333.327 183.15 331.04 183.15 328.17C183.15 325.3 184.001 323.013 185.705 321.31C187.385 319.583 189.601 318.72 192.355 318.72C195.108 318.72 197.325 319.572 199.005 321.275C200.685 322.978 201.525 325.277 201.525 328.17ZM188.89 332.475C189.73 333.478 190.885 333.98 192.355 333.98C193.825 333.98 194.968 333.478 195.785 332.475C196.625 331.448 197.045 330.013 197.045 328.17C197.045 326.327 196.625 324.903 195.785 323.9C194.968 322.873 193.825 322.36 192.355 322.36C190.885 322.36 189.73 322.862 188.89 323.865C188.073 324.868 187.665 326.303 187.665 328.17C187.665 330.037 188.073 331.472 188.89 332.475ZM235.925 324.74C235.925 328.613 234.805 331.74 232.565 334.12L235.505 337.305L233.055 339.65L229.87 336.22C228.004 337.247 225.88 337.76 223.5 337.76C219.767 337.76 216.757 336.57 214.47 334.19C212.184 331.787 211.04 328.637 211.04 324.74C211.04 320.843 212.184 317.693 214.47 315.29C216.757 312.91 219.767 311.72 223.5 311.72C227.234 311.72 230.244 312.91 232.53 315.29C234.794 317.647 235.925 320.797 235.925 324.74ZM223.5 333.595C224.69 333.595 225.787 333.362 226.79 332.895L223.92 329.78L226.405 327.435L229.38 330.69C230.477 329.103 231.025 327.12 231.025 324.74C231.025 322.01 230.349 319.852 228.995 318.265C227.642 316.678 225.81 315.885 223.5 315.885C221.237 315.885 219.417 316.678 218.04 318.265C216.664 319.852 215.975 322.01 215.975 324.74C215.975 327.47 216.664 329.628 218.04 331.215C219.417 332.802 221.237 333.595 223.5 333.595ZM250.438 329.255V319.14H254.848V337.2H250.578V334.575C249.201 336.605 247.311 337.62 244.908 337.62C242.971 337.62 241.431 337.06 240.288 335.94C239.168 334.797 238.608 333.187 238.608 331.11V319.14H243.018V330.375C243.018 332.662 244.15 333.805 246.413 333.805C247.533 333.805 248.478 333.408 249.248 332.615C250.041 331.798 250.438 330.678 250.438 329.255ZM276.002 328.17C276.002 331.017 275.162 333.303 273.482 335.03C271.802 336.757 269.585 337.62 266.832 337.62C264.079 337.62 261.862 336.757 260.182 335.03C258.479 333.327 257.627 331.04 257.627 328.17C257.627 325.3 258.479 323.013 260.182 321.31C261.862 319.583 264.079 318.72 266.832 318.72C269.585 318.72 271.802 319.572 273.482 321.275C275.162 322.978 276.002 325.277 276.002 328.17ZM263.367 332.475C264.207 333.478 265.362 333.98 266.832 333.98C268.302 333.98 269.445 333.478 270.262 332.475C271.102 331.448 271.522 330.013 271.522 328.17C271.522 326.327 271.102 324.903 270.262 323.9C269.445 322.873 268.302 322.36 266.832 322.36C265.362 322.36 264.207 322.862 263.367 323.865C262.55 324.868 262.142 326.303 262.142 328.17C262.142 330.037 262.55 331.472 263.367 332.475ZM287.261 319.14V322.5H283.691V332.265C283.691 332.848 283.843 333.257 284.146 333.49C284.473 333.723 285.01 333.84 285.756 333.84H287.261V337.2C286.305 337.293 285.535 337.34 284.951 337.34C282.991 337.34 281.556 336.978 280.646 336.255C279.76 335.508 279.316 334.33 279.316 332.72V322.5H276.516V319.14H279.316V313.89H283.691V319.14H287.261ZM306.546 328.485V329.535H293.036C293.2 331.075 293.678 332.242 294.471 333.035C295.288 333.805 296.373 334.19 297.726 334.19C299.733 334.19 301.11 333.327 301.856 331.6H306.091C305.625 333.443 304.645 334.913 303.151 336.01C301.658 337.083 299.838 337.62 297.691 337.62C295.008 337.62 292.838 336.757 291.181 335.03C289.525 333.303 288.696 331.017 288.696 328.17C288.696 325.323 289.513 323.037 291.146 321.31C292.803 319.583 294.961 318.72 297.621 318.72C300.351 318.72 302.521 319.618 304.131 321.415C305.741 323.212 306.546 325.568 306.546 328.485ZM297.586 322.15C294.996 322.15 293.491 323.585 293.071 326.455H302.136C301.95 325.125 301.46 324.075 300.666 323.305C299.873 322.535 298.846 322.15 297.586 322.15ZM316.465 337.69C311.192 337.69 308.438 335.613 308.205 331.46H312.51C312.627 332.58 312.988 333.373 313.595 333.84C314.225 334.307 315.205 334.54 316.535 334.54C318.915 334.54 320.105 333.817 320.105 332.37C320.105 331.717 319.848 331.215 319.335 330.865C318.822 330.515 317.9 330.223 316.57 329.99L314.505 329.64C310.562 328.987 308.59 327.167 308.59 324.18C308.59 322.477 309.243 321.147 310.55 320.19C311.857 319.21 313.7 318.72 316.08 318.72C321.237 318.72 323.897 320.762 324.06 324.845H319.895C319.848 323.772 319.51 323.013 318.88 322.57C318.25 322.103 317.317 321.87 316.08 321.87C313.98 321.87 312.93 322.57 312.93 323.97C312.93 324.577 313.163 325.055 313.63 325.405C314.097 325.732 314.867 325.988 315.94 326.175L318.215 326.525C320.408 326.922 321.995 327.552 322.975 328.415C323.978 329.278 324.48 330.48 324.48 332.02C324.48 333.84 323.78 335.24 322.38 336.22C320.98 337.2 319.008 337.69 316.465 337.69ZM329.276 344.06H325.251C326.627 341.4 327.619 338.717 328.226 336.01C328.832 333.303 329.136 330.282 329.136 326.945C329.136 323.492 328.832 320.412 328.226 317.705C327.619 314.975 326.627 312.315 325.251 309.725H329.276C332.216 314.742 333.686 320.482 333.686 326.945C333.686 333.362 332.216 339.067 329.276 344.06Z" fill="#B1B1B1"/>
<g filter="url(#filter2_d)">
<line x1="33.0005" y1="92.8999" x2="374.6" y2="92.8999" stroke="black" stroke-width="3"/>
</g>
<g filter="url(#filter3_i)">
<path d="M53.7448 39.8319H92.5928V49.4959H78.5768V85.3999H67.6968V49.4959H53.7448V39.8319ZM131.435 39.8319V49.4959H107.435V57.7519H129.259V66.8399H107.435V75.7359H131.371V85.3999H96.6188V39.8319H131.435ZM179.572 85.3999H168.116L165.428 77.4639H146.484L143.86 85.3999H132.788L149.556 39.8319H162.42L179.572 85.3999ZM152.116 60.6319L149.492 68.4399H162.356L159.732 60.6319C158.921 58.3279 157.641 54.4879 155.892 49.1119C153.63 56.0666 152.372 59.9066 152.116 60.6319ZM201.044 86.4239C194.26 86.4239 188.777 84.2692 184.596 79.9599C180.414 75.6506 178.324 69.8692 178.324 62.6159C178.324 55.2772 180.372 49.4746 184.468 45.2079C188.564 40.9412 194.089 38.8079 201.044 38.8079C206.676 38.8079 211.454 40.3012 215.38 43.2879C219.39 46.3172 221.801 50.6052 222.612 56.1519H211.668C210.985 53.5919 209.705 51.6292 207.828 50.2639C205.993 48.8559 203.732 48.1519 201.044 48.1519C197.374 48.1519 194.537 49.4106 192.532 51.9279C190.569 54.4452 189.588 58.0079 189.588 62.6159C189.588 67.2239 190.569 70.7866 192.532 73.3039C194.537 75.8212 197.374 77.0799 201.044 77.0799C203.86 77.0799 206.249 76.2692 208.212 74.6479C210.174 73.0266 211.412 70.7652 211.924 67.8639H222.74C222.057 73.7519 219.732 78.3172 215.764 81.5599C211.753 84.8026 206.846 86.4239 201.044 86.4239ZM256.801 57.2399V39.8319H267.617V85.3999H256.801V66.9679H238.497V85.3999H227.681V39.8319H238.497V57.2399H256.801ZM309.372 39.8319V49.4959H285.372V57.7519H307.196V66.8399H285.372V75.7359H309.308V85.3999H274.556V39.8319H309.372ZM351.615 74.0719L351.935 80.4719C351.978 82.5199 352.405 84.1626 353.215 85.3999H342.079C341.397 84.1199 341.034 82.4559 340.991 80.4079L340.799 75.2879C340.714 72.7706 340.138 71.0426 339.071 70.1039C338.047 69.1226 336.383 68.6319 334.079 68.6319H325.247V85.3999H314.431V39.8319H335.999C341.333 39.8319 345.407 41.0266 348.223 43.4159C351.082 45.7626 352.511 48.9626 352.511 53.0159C352.511 58.2639 350.058 61.8692 345.151 63.8319C347.498 64.5999 349.119 65.7732 350.015 67.3519C350.954 68.9306 351.487 71.1706 351.615 74.0719ZM325.247 48.4719V60.5039H334.783C336.874 60.5039 338.495 59.9919 339.647 58.9679C340.799 57.9012 341.375 56.3866 341.375 54.4239C341.375 50.4559 339.114 48.4719 334.591 48.4719H325.247Z" fill="#DDDDDD"/>
</g>
</g>
<defs>
<filter id="filter0_d" x="0" y="0" width="408" height="408" filterUnits="userSpaceOnUse" color-interpolation-filters="sRGB">
<feFlood flood-opacity="0" result="BackgroundImageFix"/>
<feColorMatrix in="SourceAlpha" type="matrix" values="0 0 0 0 0 0 0 0 0 0 0 0 0 0 0 0 0 0 127 0"/>
<feOffset dy="4"/>
<feGaussianBlur stdDeviation="2"/>
<feColorMatrix type="matrix" values="0 0 0 0 0 0 0 0 0 0 0 0 0 0 0 0 0 0 0.25 0"/>
<feBlend mode="normal" in2="BackgroundImageFix" result="effect1_dropShadow"/>
<feBlend mode="normal" in="SourceGraphic" in2="effect1_dropShadow" result="shape"/>
</filter>
<filter id="filter1_d" x="35" y="115.2" width="336" height="273.6" filterUnits="userSpaceOnUse" color-interpolation-filters="sRGB">
<feFlood flood-opacity="0" result="BackgroundImageFix"/>
<feColorMatrix in="SourceAlpha" type="matrix" values="0 0 0 0 0 0 0 0 0 0 0 0 0 0 0 0 0 0 127 0"/>
<feOffset dy="4"/>
<feGaussianBlur stdDeviation="2"/>
<feColorMatrix type="matrix" values="0 0 0 0 0 0 0 0 0 0 0 0 0 0 0 0 0 0 0.25 0"/>
<feBlend mode="normal" in2="BackgroundImageFix" result="effect1_dropShadow"/>
<feBlend mode="normal" in="SourceGraphic" in2="effect1_dropShadow" result="shape"/>
</filter>
<filter id="filter2_d" x="29.0005" y="91.3999" width="349.6" height="11" filterUnits="userSpaceOnUse" color-interpolation-filters="sRGB">
<feFlood flood-opacity="0" result="BackgroundImageFix"/>
<feColorMatrix in="SourceAlpha" type="matrix" values="0 0 0 0 0 0 0 0 0 0 0 0 0 0 0 0 0 0 127 0"/>
<feOffset dy="4"/>
<feGaussianBlur stdDeviation="2"/>
<feColorMatrix type="matrix" values="0 0 0 0 0 0 0 0 0 0 0 0 0 0 0 0 0 0 0.25 0"/>
<feBlend mode="normal" in2="BackgroundImageFix" result="effect1_dropShadow"/>
<feBlend mode="normal" in="SourceGraphic" in2="effect1_dropShadow" result="shape"/>
</filter>
<filter id="filter3_i" x="53.7446" y="38.8079" width="299.47" height="51.616" filterUnits="userSpaceOnUse" color-interpolation-filters="sRGB">
<feFlood flood-opacity="0" result="BackgroundImageFix"/>
<feBlend mode="normal" in="SourceGraphic" in2="BackgroundImageFix" result="shape"/>
<feColorMatrix in="SourceAlpha" type="matrix" values="0 0 0 0 0 0 0 0 0 0 0 0 0 0 0 0 0 0 127 0" result="hardAlpha"/>
<feOffset dy="4"/>
<feGaussianBlur stdDeviation="2"/>
<feComposite in2="hardAlpha" operator="arithmetic" k2="-1" k3="1"/>
<feColorMatrix type="matrix" values="0 0 0 0 0 0 0 0 0 0 0 0 0 0 0 0 0 0 0.25 0"/>
<feBlend mode="normal" in2="shape" result="effect1_innerShadow"/>
</filter>
<linearGradient id="paint0_linear" x1="204" y1="0" x2="204" y2="400" gradientUnits="userSpaceOnUse">
<stop stop-color="#2B353C"/>
<stop offset="1" stop-color="#4B6F78"/>
</linearGradient>
</defs>
</svg>
